<svg width="22" height="16" viewBox="0 0 22 16" fill="none" xmlns="http://www.w3.org/2000/svg">
<path fill-rule="evenodd" clip-rule="evenodd" d="M11 0.28125C6 0.28125 1.73 3.39125 0 7.78125C1.73 12.1712 6 15.2812 11 15.2812C16 15.2812 20.27 12.1712 22 7.78125C20.27 3.39125 16 0.28125 11 0.28125ZM11 12.7812C8.24 12.7812 6 10.5413 6 7.78125C6 5.02125 8.24 2.78125 11 2.78125C13.76 2.78125 16 5.02125 16 7.78125C16 10.5413 13.76 12.7812 11 12.7812ZM8 7.78125C8 6.12125 9.34 4.78125 11 4.78125C12.66 4.78125 14 6.12125 14 7.78125C14 9.44125 12.66 10.7812 11 10.7812C9.34 10.7812 8 9.44125 8 7.78125Z" fill="#ABB2C3"/>
</svg>