<svg width="16" height="22" viewBox="0 0 16 22" fill="none" xmlns="http://www.w3.org/2000/svg">
<path fill-rule="evenodd" clip-rule="evenodd" d="M13 7.78125H14C15.1 7.78125 16 8.68125 16 9.78125V19.7812C16 20.8813 15.1 21.7812 14 21.7812H2C0.9 21.7812 0 20.8813 0 19.7812V9.78125C0 8.68125 0.9 7.78125 2 7.78125H3V5.78125C3 3.02125 5.24 0.78125 8 0.78125C10.76 0.78125 13 3.02125 13 5.78125V7.78125ZM8 2.78125C6.34 2.78125 5 4.12125 5 5.78125V7.78125H11V5.78125C11 4.12125 9.66 2.78125 8 2.78125ZM2 19.7812V9.78125H14V19.7812H2ZM10 14.7812C10 15.8813 9.1 16.7812 8 16.7812C6.9 16.7812 6 15.8813 6 14.7812C6 13.6812 6.9 12.7812 8 12.7812C9.1 12.7812 10 13.6812 10 14.7812Z" fill="#848FAA"/>
</svg>