<svg width="14" height="14" viewBox="0 0 14 14" fill="none" xmlns="http://www.w3.org/2000/svg">
<path fill-rule="evenodd" clip-rule="evenodd" d="M6.99992 13.6663C10.6818 13.6663 13.6666 10.6816 13.6666 6.99967C13.6666 3.31778 10.6818 0.333008 6.99992 0.333008C3.31802 0.333008 0.333252 3.31778 0.333252 6.99967C0.333252 10.6816 3.31802 13.6663 6.99992 13.6663ZM4.05294 4.05265C4.24028 3.86531 4.54403 3.86531 4.73138 4.05265L7.10594 6.42722L9.48049 4.05267C9.66784 3.86532 9.97159 3.86532 10.1589 4.05267C10.3463 4.24002 10.3463 4.54377 10.1589 4.73111L7.78439 7.10566L10.1589 9.48021C10.3463 9.66756 10.3463 9.9713 10.1589 10.1587C9.97159 10.346 9.66784 10.346 9.48049 10.1587L7.10594 7.7841L4.73138 10.1587C4.54403 10.346 4.24028 10.346 4.05293 10.1587C3.86559 9.97132 3.86559 9.66757 4.05293 9.48022L6.4275 7.10566L4.05294 4.7311C3.86559 4.54375 3.86559 4.24 4.05294 4.05265Z" fill="#ABB2C3"/>
</svg>