
<svg width="80" height="16" viewBox="0 0 80 16" fill="none" xmlns="http://www.w3.org/2000/svg">
<g clip-path="url(#clip0_6014:117464)">
<path fill-rule="evenodd" clip-rule="evenodd" d="M19.4224 0.0107422V12.7882L22.2473 12.7899L22.2515 5.48492L24.9895 7.5068L27.7299 5.48492V12.7931L30.5509 12.7945L30.558 0.0107422L24.9916 4.17949L19.4224 0.0107422Z" fill="#FF3838"/>
<path fill-rule="evenodd" clip-rule="evenodd" d="M41.0175 10.3346L38.8745 9.07256L38.7153 9.31974C38.2268 10.0803 37.5592 10.4663 36.7319 10.4656C35.3147 10.4649 34.2462 9.40484 34.2469 7.99983C34.248 6.59518 35.3172 5.53658 36.7348 5.53728C37.5738 5.53799 38.204 5.9031 38.7185 6.68734L38.8784 6.93098L41.0314 5.66616L40.8454 5.39922C39.8169 3.92253 38.4727 3.20467 36.7362 3.20361C33.4535 3.2022 31.6807 5.67252 31.6796 7.99807C31.6782 10.324 33.4478 12.7968 36.7305 12.7985C38.4032 12.7992 39.9811 11.9564 40.8493 10.598L41.0175 10.3346Z" fill="#FF3838"/>
<path fill-rule="evenodd" clip-rule="evenodd" d="M46.9966 5.10274L48.1958 8.08718L45.7806 8.08541L46.9966 5.10274ZM40.9105 12.8L43.8733 12.8018L44.7536 10.6312L49.2002 10.6333L50.0781 12.8049L53.0537 12.8067L47.7459 0.0853968L45.1031 0.0839844L45.8068 1.77041L40.9105 12.8Z" fill="#FF3838"/>
<path fill-rule="evenodd" clip-rule="evenodd" d="M54.2802 12.8078L56.8803 12.8092L56.8835 7.09982L58.5786 7.10123L58.5801 4.70612L56.8849 4.70506L56.8853 3.57301C56.8853 3.08714 57.2138 2.57125 57.8219 2.5716C58.1561 2.57196 58.3578 2.62845 58.559 2.71391L58.8483 2.83749L59.9286 0.500293L59.6172 0.374235C59.1341 0.177909 58.4611 0.107288 57.9919 0.106935C56.8126 0.106228 55.8411 0.488287 55.1805 1.21145C54.6041 1.8428 54.2863 2.72097 54.2856 3.68353L54.2849 4.7033L53.137 4.70294L53.1355 7.0984L54.2838 7.09876L54.2802 12.8078Z" fill="#FF3838"/>
<path fill-rule="evenodd" clip-rule="evenodd" d="M62.1664 6.8472C62.5059 5.97574 63.2384 5.46692 64.1846 5.46727C65.1409 5.46762 65.8872 5.96621 66.2831 6.84932L62.1664 6.8472ZM64.4341 3.24658C61.1618 3.24482 59.3939 5.70878 59.3925 8.02726C59.3914 10.3465 61.1561 12.8115 64.4288 12.8132H64.4302H64.4323C65.933 12.7974 67.3402 12.1194 68.4297 10.8973L66.3092 9.75077C65.7655 10.3027 65.1053 10.5929 64.3764 10.5926C63.3087 10.5919 62.3617 9.88636 62.1141 8.96405L69.1854 8.96793L69.1857 8.33129C69.1879 4.82602 66.4086 3.248 64.4341 3.24658Z" fill="#FF3838"/>
<path fill-rule="evenodd" clip-rule="evenodd" d="M72.795 6.85418C73.1342 5.98237 73.8663 5.47355 74.813 5.4739C75.7695 5.4746 76.5159 5.97284 76.9118 6.8563L72.795 6.85418ZM75.0625 3.25342C71.7898 3.25165 70.0227 5.71526 70.0212 8.03375C70.0198 10.3529 71.7841 12.818 75.0575 12.8201H75.0589H75.0603C76.5617 12.8038 77.9689 12.1259 79.0581 10.9038L76.9375 9.7576C76.3935 10.3095 75.7337 10.5998 75.0051 10.5994C73.937 10.5987 72.99 9.8932 72.7428 8.97089L79.8137 8.97442L79.8144 8.33812C79.8166 4.83286 77.0369 3.25448 75.0625 3.25342Z" fill="#FF3838"/>
<path fill-rule="evenodd" clip-rule="evenodd" d="M2.86228 10.9102V4.4357L6.98327 6.32445V3.20054L0 0V12.7209L6.98327 15.9243V12.8L2.86228 10.9102Z" fill="#FF3838"/>
<path fill-rule="evenodd" clip-rule="evenodd" d="M11.1043 10.9102V4.4357L6.98328 6.32446V3.20054L13.9666 0V12.7209L6.98328 15.9243V12.8L11.1043 10.9102Z" fill="#FF3838"/>
</g>
<defs>
<clipPath id="clip0_6014:117464">
<rect width="80" height="16" fill="white"/>
</clipPath>
</defs>
</svg>
